<svg xmlns="http://www.w3.org/2000/svg" viewBox="184 -18 97 80"><style>.st0{fill:#E10026;} .st1{fill:#005696;}</style><path d="M186.2-16.2h25.1L186.2 9.9v-26.1z" class="st0"/><path d="M256.5-16.2l-10.2 31.7c-2-3.2-4.6-5.7-7.8-7.3-3.2-1.6-7.2-2.4-11.5-2.4-1.9 0-3 .1-4.6.3-1.6.2-4 .8-6 1.6-6.3 2.6-12.2 7.7-16.1 14.7-3.9 7.1-5.2 14.8-4 21.5 1.2 6.7 4.8 12.5 10.5 15.6 5.7 3.2 12.5 3.2 18.8.6 3.4-1.4 6.7-3.5 9.7-6.3v.1l-2.3 6.8h20.9c.8-3.4 1.9-7.3 3.2-11.7.1-.4.2-.8.3-1l20.9-64.4h-21.8v.2zm-17.2 54.1c-3.3 8.6-10.8 13.7-16.6 11.5-5.8-2.3-7.8-11-4.5-19.6s10.8-13.7 16.6-11.5c5.9 2.3 7.9 11.1 4.5 19.6z" class="st1"/></svg>