<svg xmlns="http://www.w3.org/2000/svg" viewBox="135.3 6 28.7 35.3"><path d="M158.8 25.1c0-1.5-.3-2.9-.8-4.2-.5-1.2-1.3-2.3-2.2-3.2-1.5-1.5-3.4-2.3-5.4-2.5H149c-2 .2-3.9 1-5.4 2.5-.9.9-1.7 2-2.2 3.2-.6 1.3-.8 2.7-.8 4.2 0 1.4.3 2.7.8 4 .5 1.1 1.1 2.1 1.9 3 1.3 1.4 3 2.4 4.8 2.8.5.1 1.1.2 1.6.2h.7c2.2-.2 4.3-1.2 5.8-2.9.8-.9 1.4-1.9 1.9-3 .4-1.4.7-2.8.7-4.1zm.5 4.6c-.5 1.3-1.3 2.5-2.3 3.5.1.3.2.8.3 1.3.2 2.2 5 1.9 5.2 1.5.3-.4-.3-4.8-3.2-6.3zm-2.6-13.1c1 1 1.9 2.2 2.5 3.6.6-.3 1.2-.4 2-.4 2.3.1 2.3-4.7 1.9-5-.4-.3-4.2-.1-6.4 1.8zm-18.6 3.2c.8 0 1.5.1 2 .4.6-1.4 1.4-2.6 2.5-3.6-2.2-1.9-6-2.1-6.4-1.8-.4.3-.4 5 1.9 5zm13.1 16.5c-.5.1-1 .1-1.5.1-.6 0-1.2-.1-1.8-.2 0 2 1.4 3.8 3.3 4.1.8.1 1.6-.1 2.4-.4h-.2c-1.8-.2-2.3-1.8-2.2-3.6zm-5.1-22.9c-.1.3.1.3.3.8h.1c1-.3 2-.5 3.1-.5s2.1.2 3.1.5h.1c.2-.5.4-.6.3-.8-.1-.5-.4-1-.4-1.5s.5-1.4.5-1.9c0-.4-1.4-1.2-2-1.8-.6-.6-1.2-1.7-1.6-1.7h-.1c-.5 0-1 1.1-1.7 1.7-.6.6-2 1.4-2 1.8s.5 1.3.5 1.9c.2.5-.1 1-.2 1.5zm-9.3 22.5c.2.5 4.9.9 5.1-1.4.1-.6.2-1 .3-1.3-1-1-1.7-2.2-2.3-3.5-2.8 1.5-3.3 5.8-3.1 6.2z"/></svg>